<?xml version="1.0" standalone="no"?>
<!DOCTYPE svg PUBLIC "-//W3C//DTD SVG 20010904//EN"
 "http://www.w3.org/TR/2001/REC-SVG-20010904/DTD/svg10.dtd">
<svg version="1.0" xmlns="http://www.w3.org/2000/svg"
 width="700.000000pt" height="700.000000pt" viewBox="0 0 700.000000 700.000000"
 preserveAspectRatio="xMidYMid meet">
<metadata>
Created by potrace 1.14, written by Peter Selinger 2001-2017
</metadata>
<g transform="translate(0.000000,700.000000) scale(0.100000,-0.100000)"
fill="#000000" stroke="none">
<path d="M3278 6996 c-1 -2 -42 -6 -89 -10 -47 -4 -95 -8 -105 -10 -10 -2 -48
-7 -84 -12 -36 -4 -67 -8 -70 -9 -3 -1 -25 -5 -50 -9 -25 -4 -101 -21 -170
-38 -69 -16 -135 -31 -147 -34 -13 -2 -78 -23 -145 -45 -524 -175 -972 -446
-1353 -818 -417 -407 -706 -867 -889 -1413 -31 -94 -79 -267 -91 -329 -3 -13
-11 -58 -20 -99 -29 -147 -36 -199 -52 -370 -15 -164 -8 -592 12 -711 2 -13 6
-46 9 -74 17 -146 65 -366 123 -555 69 -228 222 -568 343 -763 30 -48 60 -95
65 -105 24 -43 133 -192 212 -290 144 -178 306 -343 493 -499 102 -84 305
-233 320 -233 5 0 10 -4 10 -10 0 -5 4 -10 10 -10 5 0 40 -19 77 -43 213 -136
583 -298 858 -375 139 -39 330 -79 464 -98 25 -3 57 -8 71 -10 163 -25 682
-25 842 1 13 2 46 7 73 10 71 10 87 13 115 18 14 3 43 8 65 12 137 24 407 102
580 167 104 40 111 45 87 72 -71 82 -119 209 -187 496 -11 51 -18 76 -21 82
-2 3 -39 -7 -82 -24 -183 -71 -372 -125 -538 -154 -16 -3 -36 -7 -44 -9 -8 -2
-42 -7 -75 -11 -33 -3 -69 -8 -80 -10 -32 -6 -214 -17 -290 -17 -82 -1 -309
11 -345 17 -14 3 -47 7 -75 10 -116 12 -321 60 -490 113 -348 112 -729 329
-998 571 -51 45 -223 218 -257 258 -108 126 -217 276 -308 427 -37 61 -156
290 -161 309 -1 4 -10 28 -21 54 -11 25 -20 51 -20 58 0 7 -4 16 -9 21 -16 17
-82 236 -112 370 -231 1032 107 2075 898 2776 82 72 282 222 354 264 157 92
214 123 310 168 123 59 263 113 374 145 90 27 213 59 245 65 87 16 151 27 195
33 28 3 59 8 69 10 35 6 249 18 331 17 86 0 290 -11 322 -17 11 -3 44 -7 74
-11 30 -3 99 -15 154 -26 421 -83 801 -253 1150 -515 145 -109 178 -138 312
-272 260 -261 472 -579 608 -912 26 -63 51 -124 56 -135 38 -89 120 -425 134
-550 3 -27 7 -60 9 -73 22 -112 23 -549 1 -661 -2 -14 -7 -46 -10 -73 -11 -98
-51 -275 -97 -435 -11 -38 -10 -44 13 -80 14 -21 37 -65 53 -98 l28 -60 111 2
c62 1 135 -3 162 -8 28 -6 61 -12 74 -15 13 -3 50 -14 83 -26 47 -16 62 -18
68 -8 4 7 24 67 44 134 35 115 41 139 52 196 3 14 7 33 10 42 6 19 6 22 27
138 39 212 52 364 51 620 0 174 -10 395 -18 410 -2 3 -7 34 -10 69 -4 36 -8
67 -10 70 -2 3 -7 29 -10 56 -33 253 -160 641 -307 940 -411 836 -1144 1478
-2024 1773 -168 57 -420 119 -555 137 -19 3 -46 7 -60 10 -13 2 -54 7 -90 11
-36 3 -76 8 -90 11 -27 5 -536 14 -542 9z"/>
<path d="M2358 4589 c-138 -21 -245 -89 -317 -204 -98 -155 -84 -364 34 -505
196 -234 559 -205 714 58 181 306 -81 702 -431 651z"/>
<path d="M4489 4536 c-2 -2 -26 -6 -54 -10 -86 -10 -117 -17 -200 -46 -149
-51 -261 -119 -362 -217 -73 -72 -96 -119 -101 -205 -10 -156 108 -280 267
-281 82 -1 134 22 214 92 102 90 215 126 362 118 49 -3 102 -8 118 -11 54 -12
137 -59 194 -109 106 -92 202 -114 309 -71 113 46 175 139 170 259 -3 83 -26
134 -89 196 -101 101 -210 169 -347 219 -74 28 -107 37 -195 55 -33 7 -280 16
-286 11z"/>
<path d="M3004 3262 c-30 -19 -52 -60 -49 -92 1 -8 3 -22 3 -30 3 -23 38 -54
129 -115 197 -131 315 -273 298 -362 -9 -53 -44 -108 -108 -174 -57 -58 -190
-163 -239 -188 -38 -19 -68 -48 -78 -76 -19 -49 11 -115 64 -142 59 -30 214
-153 269 -213 58 -64 97 -134 97 -172 0 -85 -132 -235 -308 -352 -56 -38 -107
-76 -112 -86 -29 -55 -13 -117 41 -149 77 -47 421 14 629 112 309 145 457 369
385 582 -46 134 -200 281 -375 358 l-50 22 58 30 c102 53 186 111 245 171 69
69 103 123 127 202 67 215 -107 448 -437 586 -70 29 -220 74 -273 82 -19 3
-41 7 -49 10 -7 2 -63 7 -125 10 -99 5 -114 3 -142 -14z"/>
<path d="M5285 2614 c-284 -55 -479 -306 -470 -605 3 -79 49 -279 166 -719 11
-41 22 -82 24 -90 1 -8 11 -44 20 -80 9 -36 19 -72 21 -80 2 -8 27 -108 57
-223 44 -169 59 -214 84 -244 37 -47 106 -82 158 -83 45 0 97 14 650 170 121
34 308 86 415 116 107 30 227 70 265 89 135 66 238 187 291 340 37 108 39 263
6 372 -63 204 -220 355 -420 403 -102 24 -192 16 -375 -35 -93 -25 -170 -45
-172 -43 -2 2 -22 77 -45 168 -53 213 -90 291 -184 385 -63 63 -163 128 -213
140 -10 3 -37 9 -59 14 -65 16 -153 18 -219 5z"/>
</g>
</svg>
